<svg width="40" height="40" viewBox="0 0 40 40" fill="none" xmlns="http://www.w3.org/2000/svg">
<mask id="mask0_17_95" style="mask-type:alpha" maskUnits="userSpaceOnUse" x="0" y="0" width="40" height="40">
<rect x="40" width="40" height="40" transform="rotate(90 40 0)" fill="#D9D9D9"/>
</mask>
<g mask="url(#mask0_17_95)">
<path d="M5 8.33333C5 7.41667 5.32639 6.63194 5.97917 5.97917C6.63194 5.32639 7.41667 5 8.33333 5L31.6667 5C32.5833 5 33.3681 5.32639 34.0208 5.97917C34.6736 6.63194 35 7.41667 35 8.33333L35 16.6667L5 16.6667L5 8.33333ZM5 20C5 19.5278 5.15972 19.1319 5.47917 18.8125C5.79861 18.4931 6.19444 18.3333 6.66667 18.3333C7.13889 18.3333 7.53472 18.4931 7.85417 18.8125C8.17361 19.1319 8.33333 19.5278 8.33333 20C8.33333 20.4722 8.17361 20.8681 7.85417 21.1875C7.53472 21.5069 7.13889 21.6667 6.66667 21.6667C6.19444 21.6667 5.79861 21.5069 5.47917 21.1875C5.15972 20.8681 5 20.4722 5 20ZM11.6667 20C11.6667 19.5278 11.8264 19.1319 12.1458 18.8125C12.4653 18.4931 12.8611 18.3333 13.3333 18.3333C13.8056 18.3333 14.2014 18.4931 14.5208 18.8125C14.8403 19.1319 15 19.5278 15 20C15 20.4722 14.8403 20.8681 14.5208 21.1875C14.2014 21.5069 13.8056 21.6667 13.3333 21.6667C12.8611 21.6667 12.4653 21.5069 12.1458 21.1875C11.8264 20.8681 11.6667 20.4722 11.6667 20ZM18.3333 20C18.3333 19.5278 18.4931 19.1319 18.8125 18.8125C19.1319 18.4931 19.5278 18.3333 20 18.3333C20.4722 18.3333 20.8681 18.4931 21.1875 18.8125C21.5069 19.1319 21.6667 19.5278 21.6667 20C21.6667 20.4722 21.5069 20.8681 21.1875 21.1875C20.8681 21.5069 20.4722 21.6667 20 21.6667C19.5278 21.6667 19.1319 21.5069 18.8125 21.1875C18.4931 20.8681 18.3333 20.4722 18.3333 20ZM25 20C25 19.5278 25.1597 19.1319 25.4792 18.8125C25.7986 18.4931 26.1944 18.3333 26.6667 18.3333C27.1389 18.3333 27.5347 18.4931 27.8542 18.8125C28.1736 19.1319 28.3333 19.5278 28.3333 20C28.3333 20.4722 28.1736 20.8681 27.8542 21.1875C27.5347 21.5069 27.1389 21.6667 26.6667 21.6667C26.1944 21.6667 25.7986 21.5069 25.4792 21.1875C25.1597 20.8681 25 20.4722 25 20ZM31.6667 20C31.6667 19.5278 31.8264 19.1319 32.1458 18.8125C32.4653 18.4931 32.8611 18.3333 33.3333 18.3333C33.8056 18.3333 34.2014 18.4931 34.5208 18.8125C34.8403 19.1319 35 19.5278 35 20C35 20.4722 34.8403 20.8681 34.5208 21.1875C34.2014 21.5069 33.8056 21.6667 33.3333 21.6667C32.8611 21.6667 32.4653 21.5069 32.1458 21.1875C31.8264 20.8681 31.6667 20.4722 31.6667 20ZM8.33333 23.3333C8.33333 22.8611 8.49305 22.4653 8.8125 22.1458C9.13194 21.8264 9.52778 21.6667 10 21.6667C10.4722 21.6667 10.8681 21.8264 11.1875 22.1458C11.5069 22.4653 11.6667 22.8611 11.6667 23.3333C11.6667 23.8056 11.5069 24.2014 11.1875 24.5208C10.8681 24.8403 10.4722 25 10 25C9.52778 25 9.13194 24.8403 8.8125 24.5208C8.49305 24.2014 8.33333 23.8056 8.33333 23.3333ZM15 23.3333C15 22.8611 15.1597 22.4653 15.4792 22.1458C15.7986 21.8264 16.1944 21.6667 16.6667 21.6667C17.1389 21.6667 17.5347 21.8264 17.8542 22.1458C18.1736 22.4653 18.3333 22.8611 18.3333 23.3333C18.3333 23.8056 18.1736 24.2014 17.8542 24.5208C17.5347 24.8403 17.1389 25 16.6667 25C16.1944 25 15.7986 24.8403 15.4792 24.5208C15.1597 24.2014 15 23.8056 15 23.3333ZM21.6667 23.3333C21.6667 22.8611 21.8264 22.4653 22.1458 22.1458C22.4653 21.8264 22.8611 21.6667 23.3333 21.6667C23.8056 21.6667 24.2014 21.8264 24.5208 22.1458C24.8403 22.4653 25 22.8611 25 23.3333C25 23.8056 24.8403 24.2014 24.5208 24.5208C24.2014 24.8403 23.8056 25 23.3333 25C22.8611 25 22.4653 24.8403 22.1458 24.5208C21.8264 24.2014 21.6667 23.8056 21.6667 23.3333ZM28.3333 23.3333C28.3333 22.8611 28.4931 22.4653 28.8125 22.1458C29.1319 21.8264 29.5278 21.6667 30 21.6667C30.4722 21.6667 30.8681 21.8264 31.1875 22.1458C31.5069 22.4653 31.6667 22.8611 31.6667 23.3333C31.6667 23.8056 31.5069 24.2014 31.1875 24.5208C30.8681 24.8403 30.4722 25 30 25C29.5278 25 29.1319 24.8403 28.8125 24.5208C28.4931 24.2014 28.3333 23.8056 28.3333 23.3333ZM5 26.6667C5 26.1944 5.15972 25.7986 5.47917 25.4792C5.79861 25.1597 6.19444 25 6.66667 25C7.13889 25 7.53472 25.1597 7.85417 25.4792C8.17361 25.7986 8.33333 26.1944 8.33333 26.6667C8.33333 27.1389 8.17361 27.5347 7.85417 27.8542C7.53472 28.1736 7.13889 28.3333 6.66667 28.3333C6.19444 28.3333 5.79861 28.1736 5.47917 27.8542C5.15972 27.5347 5 27.1389 5 26.6667ZM11.6667 26.6667C11.6667 26.1944 11.8264 25.7986 12.1458 25.4792C12.4653 25.1597 12.8611 25 13.3333 25C13.8056 25 14.2014 25.1597 14.5208 25.4792C14.8403 25.7986 15 26.1944 15 26.6667C15 27.1389 14.8403 27.5347 14.5208 27.8542C14.2014 28.1736 13.8056 28.3333 13.3333 28.3333C12.8611 28.3333 12.4653 28.1736 12.1458 27.8542C11.8264 27.5347 11.6667 27.1389 11.6667 26.6667ZM18.3333 26.6667C18.3333 26.1944 18.4931 25.7986 18.8125 25.4792C19.1319 25.1597 19.5278 25 20 25C20.4722 25 20.8681 25.1597 21.1875 25.4792C21.5069 25.7986 21.6667 26.1944 21.6667 26.6667C21.6667 27.1389 21.5069 27.5347 21.1875 27.8542C20.8681 28.1736 20.4722 28.3333 20 28.3333C19.5278 28.3333 19.1319 28.1736 18.8125 27.8542C18.4931 27.5347 18.3333 27.1389 18.3333 26.6667ZM25 26.6667C25 26.1944 25.1597 25.7986 25.4792 25.4792C25.7986 25.1597 26.1944 25 26.6667 25C27.1389 25 27.5347 25.1597 27.8542 25.4792C28.1736 25.7986 28.3333 26.1944 28.3333 26.6667C28.3333 27.1389 28.1736 27.5347 27.8542 27.8542C27.5347 28.1736 27.1389 28.3333 26.6667 28.3333C26.1944 28.3333 25.7986 28.1736 25.4792 27.8542C25.1597 27.5347 25 27.1389 25 26.6667ZM31.6667 26.6667C31.6667 26.1944 31.8264 25.7986 32.1458 25.4792C32.4653 25.1597 32.8611 25 33.3333 25C33.8056 25 34.2014 25.1597 34.5208 25.4792C34.8403 25.7986 35 26.1944 35 26.6667C35 27.1389 34.8403 27.5347 34.5208 27.8542C34.2014 28.1736 33.8056 28.3333 33.3333 28.3333C32.8611 28.3333 32.4653 28.1736 32.1458 27.8542C31.8264 27.5347 31.6667 27.1389 31.6667 26.6667ZM8.33333 30C8.33333 29.5278 8.49305 29.1319 8.8125 28.8125C9.13194 28.4931 9.52778 28.3333 10 28.3333C10.4722 28.3333 10.8681 28.4931 11.1875 28.8125C11.5069 29.1319 11.6667 29.5278 11.6667 30C11.6667 30.4722 11.5069 30.8681 11.1875 31.1875C10.8681 31.5069 10.4722 31.6667 10 31.6667C9.52778 31.6667 9.13194 31.5069 8.8125 31.1875C8.49305 30.8681 8.33333 30.4722 8.33333 30ZM15 30C15 29.5278 15.1597 29.1319 15.4792 28.8125C15.7986 28.4931 16.1944 28.3333 16.6667 28.3333C17.1389 28.3333 17.5347 28.4931 17.8542 28.8125C18.1736 29.1319 18.3333 29.5278 18.3333 30C18.3333 30.4722 18.1736 30.8681 17.8542 31.1875C17.5347 31.5069 17.1389 31.6667 16.6667 31.6667C16.1944 31.6667 15.7986 31.5069 15.4792 31.1875C15.1597 30.8681 15 30.4722 15 30ZM21.6667 30C21.6667 29.5278 21.8264 29.1319 22.1458 28.8125C22.4653 28.4931 22.8611 28.3333 23.3333 28.3333C23.8056 28.3333 24.2014 28.4931 24.5208 28.8125C24.8403 29.1319 25 29.5278 25 30C25 30.4722 24.8403 30.8681 24.5208 31.1875C24.2014 31.5069 23.8056 31.6667 23.3333 31.6667C22.8611 31.6667 22.4653 31.5069 22.1458 31.1875C21.8264 30.8681 21.6667 30.4722 21.6667 30ZM28.3333 30C28.3333 29.5278 28.4931 29.1319 28.8125 28.8125C29.1319 28.4931 29.5278 28.3333 30 28.3333C30.4722 28.3333 30.8681 28.4931 31.1875 28.8125C31.5069 29.1319 31.6667 29.5278 31.6667 30C31.6667 30.4722 31.5069 30.8681 31.1875 31.1875C30.8681 31.5069 30.4722 31.6667 30 31.6667C29.5278 31.6667 29.1319 31.5069 28.8125 31.1875C28.4931 30.8681 28.3333 30.4722 28.3333 30ZM5 33.3333C5 32.8611 5.15972 32.4653 5.47917 32.1458C5.79861 31.8264 6.19444 31.6667 6.66667 31.6667C7.13889 31.6667 7.53472 31.8264 7.85417 32.1458C8.17361 32.4653 8.33333 32.8611 8.33333 33.3333C8.33333 33.8056 8.17361 34.2014 7.85417 34.5208C7.53472 34.8403 7.13889 35 6.66667 35C6.19444 35 5.79861 34.8403 5.47917 34.5208C5.15972 34.2014 5 33.8056 5 33.3333ZM11.6667 33.3333C11.6667 32.8611 11.8264 32.4653 12.1458 32.1458C12.4653 31.8264 12.8611 31.6667 13.3333 31.6667C13.8056 31.6667 14.2014 31.8264 14.5208 32.1458C14.8403 32.4653 15 32.8611 15 33.3333C15 33.8056 14.8403 34.2014 14.5208 34.5208C14.2014 34.8403 13.8056 35 13.3333 35C12.8611 35 12.4653 34.8403 12.1458 34.5208C11.8264 34.2014 11.6667 33.8056 11.6667 33.3333ZM18.3333 33.3333C18.3333 32.8611 18.4931 32.4653 18.8125 32.1458C19.1319 31.8264 19.5278 31.6667 20 31.6667C20.4722 31.6667 20.8681 31.8264 21.1875 32.1458C21.5069 32.4653 21.6667 32.8611 21.6667 33.3333C21.6667 33.8056 21.5069 34.2014 21.1875 34.5208C20.8681 34.8403 20.4722 35 20 35C19.5278 35 19.1319 34.8403 18.8125 34.5208C18.4931 34.2014 18.3333 33.8056 18.3333 33.3333ZM25 33.3333C25 32.8611 25.1597 32.4653 25.4792 32.1458C25.7986 31.8264 26.1944 31.6667 26.6667 31.6667C27.1389 31.6667 27.5347 31.8264 27.8542 32.1458C28.1736 32.4653 28.3333 32.8611 28.3333 33.3333C28.3333 33.8056 28.1736 34.2014 27.8542 34.5208C27.5347 34.8403 27.1389 35 26.6667 35C26.1944 35 25.7986 34.8403 25.4792 34.5208C25.1597 34.2014 25 33.8056 25 33.3333ZM31.6667 33.3333C31.6667 32.8611 31.8264 32.4653 32.1458 32.1458C32.4653 31.8264 32.8611 31.6667 33.3333 31.6667C33.8056 31.6667 34.2014 31.8264 34.5208 32.1458C34.8403 32.4653 35 32.8611 35 33.3333C35 33.8056 34.8403 34.2014 34.5208 34.5208C34.2014 34.8403 33.8056 35 33.3333 35C32.8611 35 32.4653 34.8403 32.1458 34.5208C31.8264 34.2014 31.6667 33.8056 31.6667 33.3333Z" fill="#D0CFD3"/>
</g>
</svg>
