<svg width="33" height="33" viewBox="0 0 33 33" fill="none" xmlns="http://www.w3.org/2000/svg">
<g clip-path="url(#clip0_18_156)">
<path d="M16.79 24.1915C21.2083 24.1915 24.79 20.6098 24.79 16.1915C24.79 11.7732 21.2083 8.19153 16.79 8.19153C12.3717 8.19153 8.78998 11.7732 8.78998 16.1915C8.78998 20.6098 12.3717 24.1915 16.79 24.1915Z" fill="white"/>
<path d="M16.79 8.1951H30.6441C29.2403 5.76269 27.2207 3.74276 24.7886 2.33843C22.3564 0.934104 19.5974 0.194872 16.7889 0.195068C13.9805 0.195264 11.2216 0.934881 8.78962 2.33955C6.35767 3.74422 4.33841 5.76442 2.93488 8.19703L9.86194 20.1951L9.86814 20.1935C9.16348 18.9783 8.79161 17.5989 8.79003 16.1942C8.78845 14.7895 9.15722 13.4092 9.85915 12.1925C10.5611 10.9758 11.5714 9.96558 12.7882 9.26378C14.005 8.56198 15.3853 8.19337 16.79 8.1951Z" fill="url(#paint0_linear_18_156)"/>
<path d="M16.7899 22.5285C20.2877 22.5285 23.1233 19.693 23.1233 16.1951C23.1233 12.6973 20.2877 9.86182 16.7899 9.86182C13.2921 9.86182 10.4566 12.6973 10.4566 16.1951C10.4566 19.693 13.2921 22.5285 16.7899 22.5285Z" fill="#1A73E8"/>
<path d="M23.7175 20.197L16.7905 32.1951C19.5989 32.1955 22.358 31.4564 24.7902 30.0523C27.2225 28.6481 29.2421 26.6284 30.6462 24.1961C32.0502 21.7638 32.7892 19.0047 32.7887 16.1962C32.7882 13.3878 32.0482 10.6289 30.6433 8.19714H16.7893L16.7876 8.20334C18.1923 8.20063 19.5729 8.5683 20.7902 9.26926C22.0075 9.97023 23.0184 10.9797 23.7212 12.196C24.424 13.4123 24.7937 14.7923 24.793 16.197C24.7924 17.6017 24.4214 18.9814 23.7175 20.197Z" fill="url(#paint1_linear_18_156)"/>
<path d="M9.86236 20.1972L2.93529 8.1991C1.53071 10.6311 0.791181 13.39 0.791077 16.1985C0.790972 19.007 1.53029 21.766 2.93469 24.1981C4.3391 26.6302 6.35908 28.6497 8.79153 30.0535C11.224 31.4573 13.9832 32.1959 16.7916 32.1951L23.7187 20.197L23.7142 20.1925C23.0142 21.4103 22.0055 22.4221 20.7898 23.1258C19.5741 23.8295 18.1943 24.2003 16.7896 24.2008C15.3849 24.2013 14.005 23.8314 12.7888 23.1285C11.5726 22.4256 10.5632 21.4145 9.86236 20.1972Z" fill="url(#paint2_linear_18_156)"/>
</g>
<defs>
<linearGradient id="paint0_linear_18_156" x1="2.93488" y1="10.1951" x2="30.6441" y2="10.1951" gradientUnits="userSpaceOnUse">
<stop stop-color="#D93025"/>
<stop offset="1" stop-color="#EA4335"/>
</linearGradient>
<linearGradient id="paint1_linear_18_156" x1="14.6046" y1="31.9811" x2="28.4593" y2="7.98421" gradientUnits="userSpaceOnUse">
<stop stop-color="#FCC934"/>
<stop offset="1" stop-color="#FBBC04"/>
</linearGradient>
<linearGradient id="paint2_linear_18_156" x1="18.522" y1="31.1961" x2="4.66736" y2="7.1991" gradientUnits="userSpaceOnUse">
<stop stop-color="#1E8E3E"/>
<stop offset="1" stop-color="#34A853"/>
</linearGradient>
<clipPath id="clip0_18_156">
<rect width="32" height="32" fill="white" transform="translate(0.789978 0.195068)"/>
</clipPath>
</defs>
</svg>
