<svg width="34" height="34" viewBox="0 0 34 34" fill="none" xmlns="http://www.w3.org/2000/svg">
<g clip-path="url(#clip0_18_163)">
<path d="M30.206 25.1504C29.769 25.3775 29.3184 25.5773 28.8567 25.7487C27.3949 26.2928 25.8469 26.5688 24.2871 26.5633C18.2665 26.5633 13.0222 22.4265 13.0222 17.1059C13.0301 16.3935 13.2276 15.696 13.5945 15.0852C13.9614 14.4744 14.4844 13.9725 15.1098 13.631C9.66187 13.8601 8.26172 19.5371 8.26172 22.8593C8.26172 32.2785 16.93 33.2204 18.8011 33.2204C19.8066 33.2204 21.3214 32.9277 22.2378 32.6349L22.4033 32.584C25.9106 31.3719 28.9005 29.0016 30.8806 25.8633C30.9382 25.7679 30.9628 25.6563 30.9509 25.5456C30.939 25.4348 30.891 25.3311 30.8145 25.2502C30.7379 25.1693 30.637 25.1157 30.527 25.0977C30.4171 25.0797 30.3044 25.0982 30.206 25.1504Z" fill="url(#paint0_linear_18_163)"/>
<path opacity="0.35" d="M30.206 25.1504C29.769 25.3775 29.3184 25.5773 28.8567 25.7487C27.3949 26.2928 25.8469 26.5688 24.2871 26.5633C18.2665 26.5633 13.0222 22.4265 13.0222 17.1059C13.0301 16.3935 13.2276 15.696 13.5945 15.0852C13.9614 14.4744 14.4844 13.9725 15.1098 13.631C9.66187 13.8601 8.26172 19.5371 8.26172 22.8593C8.26172 32.2785 16.93 33.2204 18.8011 33.2204C19.8066 33.2204 21.3214 32.9277 22.2378 32.6349L22.4033 32.584C25.9106 31.3719 28.9005 29.0016 30.8806 25.8633C30.9382 25.7679 30.9628 25.6563 30.9509 25.5456C30.939 25.4348 30.891 25.3311 30.8145 25.2502C30.7379 25.1693 30.637 25.1157 30.527 25.0977C30.4171 25.0797 30.3044 25.0982 30.206 25.1504Z" fill="url(#paint1_radial_18_163)"/>
<path d="M14.2442 31.6167C13.1112 30.913 12.1291 29.9915 11.3548 28.9055C10.4706 27.6953 9.86191 26.3062 9.57154 24.8357C9.28118 23.3653 9.31613 21.8491 9.67394 20.3936C10.0318 18.938 10.7038 17.5785 11.6428 16.4102C12.5818 15.242 13.7652 14.2934 15.1097 13.6311C15.517 13.4402 16.1917 13.1092 17.0954 13.1219C17.7313 13.1269 18.3575 13.2788 18.925 13.5658C19.4925 13.8529 19.9859 14.2673 20.3667 14.7767C20.8788 15.4654 21.1596 16.2987 21.1686 17.1569C21.1686 17.1315 24.2871 7.0249 10.9856 7.0249C5.39774 7.0249 0.802678 12.32 0.802678 16.9787C0.780452 19.4396 1.30658 21.8746 2.34285 24.1068C4.03993 27.7205 7.00478 30.5853 10.6746 32.1574C14.3444 33.7295 18.4637 33.8995 22.2505 32.635C20.9238 33.054 19.522 33.18 18.1418 33.0042C16.7617 32.8284 15.4362 32.355 14.2569 31.6167H14.2442Z" fill="url(#paint2_linear_18_163)"/>
<path opacity="0.41" d="M14.2442 31.6167C13.1112 30.913 12.1291 29.9915 11.3548 28.9055C10.4706 27.6953 9.86191 26.3062 9.57154 24.8357C9.28118 23.3653 9.31613 21.8491 9.67394 20.3936C10.0318 18.938 10.7038 17.5785 11.6428 16.4102C12.5818 15.242 13.7652 14.2934 15.1097 13.6311C15.517 13.4402 16.1917 13.1092 17.0954 13.1219C17.7313 13.1269 18.3575 13.2788 18.925 13.5658C19.4925 13.8529 19.9859 14.2673 20.3667 14.7767C20.8788 15.4654 21.1596 16.2987 21.1686 17.1569C21.1686 17.1315 24.2871 7.0249 10.9856 7.0249C5.39774 7.0249 0.802678 12.32 0.802678 16.9787C0.780452 19.4396 1.30658 21.8746 2.34285 24.1068C4.03993 27.7205 7.00478 30.5853 10.6746 32.1574C14.3444 33.7295 18.4637 33.8995 22.2505 32.635C20.9238 33.054 19.522 33.18 18.1418 33.0042C16.7617 32.8284 15.4362 32.355 14.2569 31.6167H14.2442Z" fill="url(#paint3_radial_18_163)"/>
<path d="M20.1885 19.8426C20.0739 19.9699 19.7557 20.1609 19.7557 20.5554C19.7557 20.8864 19.9721 21.2173 20.3667 21.4846C22.1869 22.7575 25.6364 22.5793 25.6491 22.5793C27.0061 22.5784 28.3379 22.2136 29.5059 21.5228C30.6818 20.835 31.6575 19.8518 32.3362 18.6707C33.015 17.4896 33.3732 16.1516 33.3754 14.7893C33.4136 11.9381 32.3571 10.0415 31.9371 9.20145C29.2259 3.93177 23.4089 0.902344 17.0827 0.902344C12.801 0.90192 8.69124 2.58698 5.64226 5.59308C2.59328 8.59918 0.850189 12.6847 0.789978 16.966C0.853621 12.32 5.47414 8.56501 10.9729 8.56501C11.4184 8.56501 13.9642 8.6032 16.319 9.83788C17.9733 10.66 19.3433 11.959 20.2521 13.5674C21.0286 14.9166 21.1686 16.635 21.1686 17.3224C21.1686 18.0097 20.8249 19.0153 20.1758 19.8554L20.1885 19.8426Z" fill="url(#paint4_radial_18_163)"/>
<path d="M20.1885 19.8426C20.0739 19.9699 19.7557 20.1609 19.7557 20.5554C19.7557 20.8864 19.9721 21.2173 20.3667 21.4846C22.1869 22.7575 25.6364 22.5793 25.6491 22.5793C27.0061 22.5784 28.3379 22.2136 29.5059 21.5228C30.6818 20.835 31.6575 19.8518 32.3362 18.6707C33.015 17.4896 33.3732 16.1516 33.3754 14.7893C33.4136 11.9381 32.3571 10.0415 31.9371 9.20145C29.2259 3.93177 23.4089 0.902344 17.0827 0.902344C12.801 0.90192 8.69124 2.58698 5.64226 5.59308C2.59328 8.59918 0.850189 12.6847 0.789978 16.966C0.853621 12.32 5.47414 8.56501 10.9729 8.56501C11.4184 8.56501 13.9642 8.6032 16.319 9.83788C17.9733 10.66 19.3433 11.959 20.2521 13.5674C21.0286 14.9166 21.1686 16.635 21.1686 17.3224C21.1686 18.0097 20.8249 19.0153 20.1758 19.8554L20.1885 19.8426Z" fill="url(#paint5_radial_18_163)"/>
</g>
<defs>
<linearGradient id="paint0_linear_18_163" x1="8.26172" y1="23.4321" x2="30.9697" y2="23.4321" gradientUnits="userSpaceOnUse">
<stop stop-color="#0C59A4"/>
<stop offset="1" stop-color="#114A8B"/>
</linearGradient>
<radialGradient id="paint1_radial_18_163" cx="0" cy="0" r="1" gradientUnits="userSpaceOnUse" gradientTransform="translate(20.7995 23.6033) scale(12.1432 11.536)">
<stop offset="0.7" stop-opacity="0"/>
<stop offset="0.9" stop-opacity="0.5"/>
<stop offset="1"/>
</radialGradient>
<linearGradient id="paint2_linear_18_163" x1="20.2267" y1="13.5802" x2="6.05963" y2="29.0201" gradientUnits="userSpaceOnUse">
<stop stop-color="#1B9DE2"/>
<stop offset="0.2" stop-color="#1595DF"/>
<stop offset="0.7" stop-color="#0680D7"/>
<stop offset="1" stop-color="#0078D4"/>
</linearGradient>
<radialGradient id="paint3_radial_18_163" cx="0" cy="0" r="1" gradientUnits="userSpaceOnUse" gradientTransform="translate(9.77068 26.2245) rotate(-81.3844) scale(18.2512 14.7451)">
<stop offset="0.8" stop-opacity="0"/>
<stop offset="0.9" stop-opacity="0.5"/>
<stop offset="1"/>
</radialGradient>
<radialGradient id="paint4_radial_18_163" cx="0" cy="0" r="1" gradientUnits="userSpaceOnUse" gradientTransform="translate(4.08543 6.92505) rotate(92.2906) scale(25.7835 54.9134)">
<stop stop-color="#35C1F1"/>
<stop offset="0.1" stop-color="#34C1ED"/>
<stop offset="0.2" stop-color="#2FC2DF"/>
<stop offset="0.3" stop-color="#2BC3D2"/>
<stop offset="0.7" stop-color="#36C752"/>
</radialGradient>
<radialGradient id="paint5_radial_18_163" cx="0" cy="0" r="1" gradientUnits="userSpaceOnUse" gradientTransform="translate(31.3465 10.7416) rotate(73.7398) scale(12.385 10.0715)">
<stop stop-color="#66EB6E"/>
<stop offset="1" stop-color="#66EB6E" stop-opacity="0"/>
</radialGradient>
<clipPath id="clip0_18_163">
<rect width="32.5854" height="32.5854" fill="white" transform="translate(0.789978 0.902344)"/>
</clipPath>
</defs>
</svg>
