<svg width="34" height="34" viewBox="0 0 34 34" fill="none" xmlns="http://www.w3.org/2000/svg">
<g clip-path="url(#clip0_18_181)">
<path d="M31.8282 11.3343C31.1357 9.66811 29.731 7.86907 28.631 7.30036C29.4154 8.81933 29.9598 10.4506 30.245 12.1362L30.2479 12.1629C28.446 7.67251 25.3915 5.85907 22.8954 1.91556C22.7692 1.71612 22.6429 1.51627 22.52 1.30532C22.4497 1.18484 22.3933 1.07628 22.3444 0.976352C22.2409 0.775909 22.1611 0.564074 22.1067 0.345144C22.1068 0.335041 22.1032 0.325265 22.0965 0.317681C22.0898 0.310097 22.0806 0.305235 22.0705 0.304023C22.0607 0.301328 22.0503 0.301328 22.0405 0.304023C22.0385 0.304023 22.0352 0.307724 22.0327 0.308546C22.0302 0.309369 22.0249 0.313069 22.0212 0.314714L22.0274 0.304023C18.0242 2.64792 16.6652 6.9862 16.5418 9.15739C14.9426 9.26703 13.4136 9.85615 12.1542 10.8479C12.0229 10.7366 11.8856 10.6326 11.743 10.5362C11.3799 9.2651 11.3644 7.91988 11.6982 6.64078C10.228 7.35291 8.92174 8.36249 7.86198 9.60561H7.85458C7.22296 8.80498 7.26737 6.16501 7.30356 5.61358C7.1167 5.68867 6.93833 5.78337 6.77145 5.89608C6.21386 6.29402 5.6926 6.74056 5.21378 7.23046C4.66814 7.78366 4.16979 8.38159 3.72397 9.01799V9.02046V9.01758C2.69945 10.4698 1.9727 12.1106 1.58567 13.8452L1.56429 13.9505C1.53427 14.0907 1.42612 14.793 1.40762 14.9456C1.40762 14.9575 1.40515 14.9686 1.40392 14.9805C1.26441 15.7056 1.17796 16.44 1.14526 17.1776V17.2599C1.15231 21.248 2.65424 25.0886 5.35456 28.0235C8.05489 30.9584 11.7574 32.7743 15.7311 33.1128C19.7049 33.4512 23.6612 32.2876 26.8189 29.8517C29.9767 27.4157 32.1065 23.8845 32.7879 19.955C32.8147 19.7494 32.8364 19.5458 32.8603 19.3381C33.1886 16.6249 32.8332 13.8727 31.8265 11.3319L31.8282 11.3343ZM13.4594 23.8105C13.5338 23.8462 13.6037 23.8849 13.6802 23.919L13.6913 23.926C13.614 23.889 13.5367 23.8505 13.4594 23.8105ZM30.2483 12.1675V12.1522L30.2512 12.1691L30.2483 12.1675Z" fill="url(#paint0_linear_18_181)"/>
<path d="M31.828 11.3343C31.1356 9.66804 29.7309 7.869 28.6309 7.30029C29.4153 8.81926 29.9597 10.4505 30.2449 12.1361V12.1513L30.2478 12.1682C31.4764 15.6837 31.2987 19.538 29.7518 22.9255C27.9252 26.8447 23.5056 30.8618 16.5849 30.6645C9.10906 30.4527 2.52147 24.9034 1.29195 17.6373C1.06784 16.4913 1.29195 15.9102 1.40462 14.9788C1.25093 15.7023 1.16516 16.4386 1.14844 17.178V17.2602C1.15548 21.2484 2.65741 25.089 5.35774 28.0239C8.05806 30.9587 11.7606 32.7746 15.7343 33.1131C19.7081 33.4516 23.6643 32.288 26.8221 29.852C29.9799 27.4161 32.1097 23.8848 32.7911 19.9553C32.8178 19.7497 32.8396 19.5461 32.8635 19.3385C33.1917 16.6253 32.8364 13.873 31.8297 11.3322L31.828 11.3343Z" fill="url(#paint1_radial_18_181)"/>
<path d="M31.828 11.3343C31.1356 9.66804 29.7309 7.869 28.6309 7.30029C29.4153 8.81926 29.9597 10.4505 30.2449 12.1361V12.1513L30.2478 12.1682C31.4764 15.6837 31.2987 19.538 29.7518 22.9255C27.9252 26.8447 23.5056 30.8618 16.5849 30.6645C9.10906 30.4527 2.52147 24.9034 1.29195 17.6373C1.06784 16.4913 1.29195 15.9102 1.40462 14.9788C1.25093 15.7023 1.16516 16.4386 1.14844 17.178V17.2602C1.15548 21.2484 2.65741 25.089 5.35774 28.0239C8.05806 30.9587 11.7606 32.7746 15.7343 33.1131C19.7081 33.4516 23.6643 32.288 26.8221 29.852C29.9799 27.4161 32.1097 23.8848 32.7911 19.9553C32.8178 19.7497 32.8396 19.5461 32.8635 19.3385C33.1917 16.6253 32.8364 13.873 31.8297 11.3322L31.828 11.3343Z" fill="url(#paint2_radial_18_181)"/>
<path d="M24.0809 13.2053C24.1154 13.2296 24.1475 13.2538 24.18 13.2781C23.7796 12.5682 23.2813 11.9183 22.6996 11.3475C17.7445 6.39237 21.4014 0.606632 22.0178 0.31056L22.024 0.301514C18.0209 2.64541 16.6618 6.98369 16.5385 9.15488C16.7243 9.14213 16.9085 9.12651 17.0985 9.12651C18.5188 9.12925 19.913 9.50802 21.1394 10.2243C22.3658 10.9406 23.3807 11.9688 24.0809 13.2045V13.2053Z" fill="url(#paint3_radial_18_181)"/>
<path d="M17.1067 14.1962C17.0804 14.5927 15.6798 15.9599 15.1901 15.9599C10.6586 15.9599 9.92249 18.7015 9.92249 18.7015C10.1232 21.01 11.7318 22.9123 13.6764 23.9156C13.7652 23.9617 13.8553 24.0032 13.9454 24.0439C14.1013 24.113 14.2573 24.1769 14.4133 24.2355C15.0807 24.4717 15.7797 24.6066 16.4871 24.6357C24.4316 25.0082 25.9696 15.1367 20.2369 12.2705C21.5892 12.0946 22.9586 12.4271 24.0796 13.2036C23.3795 11.9679 22.3646 10.9397 21.1382 10.2234C19.9118 9.50712 18.5175 9.12836 17.0973 9.12561C16.9081 9.12561 16.7231 9.14124 16.5372 9.15398C14.938 9.26362 13.409 9.85274 12.1496 10.8445C12.3926 11.0501 12.6669 11.3248 13.2447 11.8943C14.3261 12.9597 17.0998 14.0634 17.1059 14.193L17.1067 14.1962Z" fill="url(#paint4_radial_18_181)"/>
<path d="M17.1067 14.1962C17.0804 14.5927 15.6798 15.9599 15.1901 15.9599C10.6586 15.9599 9.92249 18.7015 9.92249 18.7015C10.1232 21.01 11.7318 22.9123 13.6764 23.9156C13.7652 23.9617 13.8553 24.0032 13.9454 24.0439C14.1013 24.113 14.2573 24.1769 14.4133 24.2355C15.0807 24.4717 15.7797 24.6066 16.4871 24.6357C24.4316 25.0082 25.9696 15.1367 20.2369 12.2705C21.5892 12.0946 22.9586 12.4271 24.0796 13.2036C23.3795 11.9679 22.3646 10.9397 21.1382 10.2234C19.9118 9.50712 18.5175 9.12836 17.0973 9.12561C16.9081 9.12561 16.7231 9.14124 16.5372 9.15398C14.938 9.26362 13.409 9.85274 12.1496 10.8445C12.3926 11.0501 12.6669 11.3248 13.2447 11.8943C14.3261 12.9597 17.0998 14.0634 17.1059 14.193L17.1067 14.1962Z" fill="url(#paint5_radial_18_181)"/>
<path d="M11.4074 10.3186C11.5365 10.4009 11.643 10.4724 11.7364 10.537C11.3732 9.26592 11.3578 7.9207 11.6915 6.6416C10.2214 7.35374 8.91511 8.36331 7.85535 9.60643C7.93307 9.60437 10.2449 9.56284 11.4074 10.3186Z" fill="url(#paint6_radial_18_181)"/>
<path d="M1.28906 17.6382C2.51899 24.9043 9.10617 30.4556 16.582 30.6654C23.5027 30.8611 27.9232 26.8436 29.7489 22.9264C31.2958 19.5389 31.4735 15.6846 30.2449 12.1691V12.1539C30.2449 12.142 30.2424 12.135 30.2449 12.1387L30.2477 12.1654C30.8132 15.8568 28.9356 19.4315 25.9999 21.8535L25.9909 21.8741C20.271 26.5331 14.7977 24.6843 13.6916 23.9301C13.6143 23.8931 13.537 23.8546 13.4597 23.8146C10.1252 22.2207 8.74718 19.1844 9.04326 16.5773C8.25172 16.589 7.47378 16.3708 6.8037 15.9493C6.13361 15.5279 5.60015 14.9211 5.26793 14.2025C6.14332 13.6663 7.14143 13.3631 8.16718 13.322C9.19293 13.2808 10.2121 13.503 11.1277 13.9673C13.0148 14.8239 15.1622 14.9083 17.1108 14.2025C17.1046 14.073 14.331 12.9689 13.2495 11.9039C12.6718 11.3343 12.3975 11.0601 12.1545 10.8541C12.0231 10.7428 11.8859 10.6388 11.7433 10.5424C11.6487 10.4778 11.5422 10.4079 11.4143 10.324C10.2518 9.5682 7.93998 9.60973 7.86349 9.61178H7.85609C7.22447 8.81116 7.26888 6.17118 7.30507 5.61975C7.11821 5.69485 6.93985 5.78954 6.77296 5.90225C6.21537 6.3002 5.69411 6.74673 5.2153 7.23663C4.6677 7.78828 4.16729 8.38484 3.71931 9.02005C2.69479 10.4723 1.96805 12.1127 1.58102 13.8473C1.5732 13.8797 1.00697 16.3552 1.28618 17.639L1.28906 17.6382Z" fill="url(#paint7_radial_18_181)"/>
<path d="M22.6992 11.3467C23.2811 11.9181 23.7794 12.5688 24.1796 13.2794C24.2672 13.3456 24.349 13.4114 24.4185 13.4751C28.0318 16.8059 26.1386 21.5143 25.9976 21.8473C28.9328 19.429 30.8087 15.8519 30.2454 12.1592C28.4426 7.66469 25.3848 5.85125 22.8929 1.90774C22.7667 1.70831 22.6404 1.50846 22.5175 1.29751C22.4472 1.17702 22.3908 1.06846 22.3419 0.96854C22.2384 0.768097 22.1586 0.556262 22.1042 0.337331C22.1043 0.327229 22.1006 0.317453 22.094 0.309869C22.0873 0.302284 22.078 0.297422 22.068 0.29621C22.0582 0.293516 22.0478 0.293516 22.038 0.29621C22.0359 0.29621 22.0327 0.299911 22.0302 0.300734C22.0277 0.301556 22.0224 0.305257 22.0187 0.306902C21.4023 0.599273 17.7462 6.38871 22.7013 11.3397L22.6992 11.3467Z" fill="url(#paint8_radial_18_181)"/>
<path d="M24.4181 13.4767C24.3486 13.413 24.2668 13.3472 24.1792 13.281C24.1467 13.2567 24.1146 13.2324 24.0801 13.2082C22.9591 12.4317 21.5896 12.0992 20.2373 12.2751C25.9696 15.1413 24.4317 25.0103 16.4875 24.6402C15.7802 24.6112 15.0812 24.4763 14.4138 24.2401C14.2578 24.1817 14.1018 24.1179 13.9458 24.0485C13.8558 24.0074 13.7657 23.9663 13.6769 23.9202L13.688 23.9272C14.7958 24.6834 20.2674 26.531 25.9873 21.8711L25.9963 21.8506C26.139 21.5175 28.0322 16.8091 24.4173 13.4783L24.4181 13.4767Z" fill="url(#paint9_radial_18_181)"/>
<path d="M9.92289 18.6991C9.92289 18.6991 10.6585 15.9576 15.1905 15.9576C15.6802 15.9576 17.0821 14.5903 17.1071 14.1939C15.1586 14.8997 13.0112 14.8153 11.124 13.9587C10.2085 13.4943 9.18928 13.2721 8.16353 13.3133C7.13779 13.3545 6.13967 13.6576 5.26428 14.1939C5.5965 14.9124 6.12997 15.5192 6.80005 15.9407C7.47013 16.3622 8.24807 16.5803 9.03961 16.5686C8.74436 19.1745 10.1219 22.2104 13.456 23.8059C13.5304 23.8417 13.6003 23.8804 13.6768 23.9145C11.7306 22.9091 10.1236 21.0076 9.92289 18.7003V18.6991Z" fill="url(#paint10_radial_18_181)"/>
<path d="M31.8281 11.3343C31.1356 9.66811 29.7309 7.86907 28.6309 7.30036C29.4153 8.81933 29.9598 10.4506 30.2449 12.1362L30.2478 12.1629C28.4459 7.67251 25.3914 5.85907 22.8953 1.91556C22.7691 1.71612 22.6429 1.51627 22.5199 1.30532C22.4496 1.18484 22.3933 1.07628 22.3443 0.976352C22.2408 0.775909 22.161 0.564074 22.1066 0.345144C22.1067 0.335041 22.1031 0.325265 22.0964 0.317681C22.0897 0.310097 22.0805 0.305235 22.0705 0.304023C22.0606 0.301328 22.0503 0.301328 22.0404 0.304023C22.0384 0.304023 22.0351 0.307724 22.0326 0.308546C22.0302 0.309369 22.0248 0.313069 22.0211 0.314714L22.0273 0.304023C18.0241 2.64792 16.6651 6.9862 16.5417 9.15739C16.7276 9.14464 16.9118 9.12901 17.1018 9.12901C18.5221 9.13176 19.9163 9.51053 21.1427 10.2268C22.3691 10.9431 23.384 11.9713 24.0842 13.207C22.9631 12.4305 21.5937 12.098 20.2414 12.274C25.9737 15.1401 24.4357 25.0091 16.4916 24.6391C15.7842 24.61 15.0852 24.4751 14.4178 24.239C14.2618 24.1806 14.1058 24.1167 13.9499 24.0473C13.8598 24.0062 13.7698 23.9651 13.6809 23.919L13.692 23.926C13.6147 23.889 13.5374 23.8505 13.4601 23.8105C13.5345 23.8462 13.6044 23.8849 13.6809 23.919C11.7347 22.9132 10.1277 21.0118 9.92699 18.7049C9.92699 18.7049 10.6626 15.9633 15.1946 15.9633C15.6843 15.9633 17.0862 14.5961 17.1113 14.1997C17.1051 14.0701 14.3315 12.966 13.25 11.901C12.6722 11.3315 12.398 11.0572 12.1549 10.8512C12.0236 10.7399 11.8863 10.6359 11.7437 10.5395C11.3806 9.26838 11.3651 7.92317 11.6989 6.64407C10.2288 7.3562 8.92247 8.36578 7.86271 9.6089H7.85531C7.22369 8.80827 7.2681 6.1683 7.30429 5.61686C7.11743 5.69196 6.93907 5.78666 6.77218 5.89937C6.21459 6.29731 5.69333 6.74385 5.21451 7.23374C4.66887 7.78695 4.17053 8.38488 3.7247 9.02128C2.70018 10.4735 1.97343 12.1139 1.5864 13.8485L1.56502 13.9537C1.535 14.094 1.40054 14.8062 1.38121 14.9592C1.25822 15.6943 1.17967 16.4363 1.146 17.1809V17.2632C1.15304 21.2513 2.65497 25.0919 5.3553 28.0268C8.05562 30.9617 11.7581 32.7776 15.7319 33.1161C19.7056 33.4545 23.6619 32.2909 26.8197 29.855C29.9774 27.419 32.1073 23.8878 32.7887 19.9582C32.8154 19.7526 32.8372 19.5491 32.861 19.3414C33.1893 16.6282 32.8339 13.876 31.8272 11.3352L31.8281 11.3343Z" fill="url(#paint11_linear_18_181)"/>
</g>
<defs>
<linearGradient id="paint0_linear_18_181" x1="29.7187" y1="5.39478" x2="3.26012" y2="30.9227" gradientUnits="userSpaceOnUse">
<stop offset="0.048" stop-color="#FFF44F"/>
<stop offset="0.111" stop-color="#FFE847"/>
<stop offset="0.225" stop-color="#FFC830"/>
<stop offset="0.368" stop-color="#FF980E"/>
<stop offset="0.401" stop-color="#FF8B16"/>
<stop offset="0.462" stop-color="#FF672A"/>
<stop offset="0.534" stop-color="#FF3647"/>
<stop offset="0.705" stop-color="#E31587"/>
</linearGradient>
<radialGradient id="paint1_radial_18_181" cx="0" cy="0" r="1" gradientUnits="userSpaceOnUse" gradientTransform="translate(28.6946 4.00238) scale(33.2258 33.2258)">
<stop offset="0.129" stop-color="#FFBD4F"/>
<stop offset="0.186" stop-color="#FFAC31"/>
<stop offset="0.247" stop-color="#FF9D17"/>
<stop offset="0.283" stop-color="#FF980E"/>
<stop offset="0.403" stop-color="#FF563B"/>
<stop offset="0.467" stop-color="#FF3750"/>
<stop offset="0.71" stop-color="#F5156C"/>
<stop offset="0.782" stop-color="#EB0878"/>
<stop offset="0.86" stop-color="#E50080"/>
</radialGradient>
<radialGradient id="paint2_radial_18_181" cx="0" cy="0" r="1" gradientUnits="userSpaceOnUse" gradientTransform="translate(16.3583 17.5723) scale(33.2258 33.2258)">
<stop offset="0.3" stop-color="#960E18"/>
<stop offset="0.351" stop-color="#B11927" stop-opacity="0.74"/>
<stop offset="0.435" stop-color="#DB293D" stop-opacity="0.343"/>
<stop offset="0.497" stop-color="#F5334B" stop-opacity="0.094"/>
<stop offset="0.53" stop-color="#FF3750" stop-opacity="0"/>
</radialGradient>
<radialGradient id="paint3_radial_18_181" cx="0" cy="0" r="1" gradientUnits="userSpaceOnUse" gradientTransform="translate(20.4704 -3.39938) scale(24.0682)">
<stop offset="0.132" stop-color="#FFF44F"/>
<stop offset="0.252" stop-color="#FFDC3E"/>
<stop offset="0.506" stop-color="#FF9D12"/>
<stop offset="0.526" stop-color="#FF980E"/>
</radialGradient>
<radialGradient id="paint4_radial_18_181" cx="0" cy="0" r="1" gradientUnits="userSpaceOnUse" gradientTransform="translate(12.6574 26.2077) scale(15.8193 15.8193)">
<stop offset="0.353" stop-color="#3A8EE6"/>
<stop offset="0.472" stop-color="#5C79F0"/>
<stop offset="0.669" stop-color="#9059FF"/>
<stop offset="1" stop-color="#C139E6"/>
</radialGradient>
<radialGradient id="paint5_radial_18_181" cx="0" cy="0" r="1" gradientUnits="userSpaceOnUse" gradientTransform="translate(17.9654 14.7201) rotate(-13.5916) scale(8.38874 9.82112)">
<stop offset="0.206" stop-color="#9059FF" stop-opacity="0"/>
<stop offset="0.278" stop-color="#8C4FF3" stop-opacity="0.064"/>
<stop offset="0.747" stop-color="#7716A8" stop-opacity="0.45"/>
<stop offset="0.975" stop-color="#6E008B" stop-opacity="0.6"/>
</radialGradient>
<radialGradient id="paint6_radial_18_181" cx="0" cy="0" r="1" gradientUnits="userSpaceOnUse" gradientTransform="translate(15.9471 2.76882) scale(11.3823 11.3823)">
<stop stop-color="#FFE226"/>
<stop offset="0.121" stop-color="#FFDB27"/>
<stop offset="0.295" stop-color="#FFC82A"/>
<stop offset="0.502" stop-color="#FFA930"/>
<stop offset="0.732" stop-color="#FF7E37"/>
<stop offset="0.792" stop-color="#FF7139"/>
</radialGradient>
<radialGradient id="paint7_radial_18_181" cx="0" cy="0" r="1" gradientUnits="userSpaceOnUse" gradientTransform="translate(24.9937 -4.63297) scale(48.564 48.564)">
<stop offset="0.113" stop-color="#FFF44F"/>
<stop offset="0.456" stop-color="#FF980E"/>
<stop offset="0.622" stop-color="#FF5634"/>
<stop offset="0.716" stop-color="#FF3647"/>
<stop offset="0.904" stop-color="#E31587"/>
</radialGradient>
<radialGradient id="paint8_radial_18_181" cx="0" cy="0" r="1" gradientUnits="userSpaceOnUse" gradientTransform="translate(20.9573 -1.94036) rotate(83.976) scale(35.5884 23.3563)">
<stop stop-color="#FFF44F"/>
<stop offset="0.06" stop-color="#FFE847"/>
<stop offset="0.168" stop-color="#FFC830"/>
<stop offset="0.304" stop-color="#FF980E"/>
<stop offset="0.356" stop-color="#FF8B16"/>
<stop offset="0.455" stop-color="#FF672A"/>
<stop offset="0.57" stop-color="#FF3647"/>
<stop offset="0.737" stop-color="#E31587"/>
</radialGradient>
<radialGradient id="paint9_radial_18_181" cx="0" cy="0" r="1" gradientUnits="userSpaceOnUse" gradientTransform="translate(15.9472 6.88087) scale(30.3145 30.3144)">
<stop offset="0.137" stop-color="#FFF44F"/>
<stop offset="0.48" stop-color="#FF980E"/>
<stop offset="0.592" stop-color="#FF5634"/>
<stop offset="0.655" stop-color="#FF3647"/>
<stop offset="0.904" stop-color="#E31587"/>
</radialGradient>
<radialGradient id="paint10_radial_18_181" cx="0" cy="0" r="1" gradientUnits="userSpaceOnUse" gradientTransform="translate(23.7601 8.52575) scale(33.1806 33.1806)">
<stop offset="0.094" stop-color="#FFF44F"/>
<stop offset="0.231" stop-color="#FFE141"/>
<stop offset="0.509" stop-color="#FFAF1E"/>
<stop offset="0.626" stop-color="#FF980E"/>
</radialGradient>
<linearGradient id="paint11_linear_18_181" x1="29.3978" y1="5.25907" x2="6.88814" y2="27.7729" gradientUnits="userSpaceOnUse">
<stop offset="0.167" stop-color="#FFF44F" stop-opacity="0.8"/>
<stop offset="0.266" stop-color="#FFF44F" stop-opacity="0.634"/>
<stop offset="0.489" stop-color="#FFF44F" stop-opacity="0.217"/>
<stop offset="0.6" stop-color="#FFF44F" stop-opacity="0"/>
</linearGradient>
<clipPath id="clip0_18_181">
<rect width="32.42" height="33.4878" fill="white" transform="translate(0.85144)"/>
</clipPath>
</defs>
</svg>
