<svg width="34" height="34" viewBox="0 0 34 34" fill="none" xmlns="http://www.w3.org/2000/svg">
<g clip-path="url(#clip0_18_172)">
<g opacity="0.53" filter="url(#filter0_f_18_172)">
<path d="M32.3816 17.2729C32.3816 19.2035 31.9867 21.1153 31.2194 22.899C30.4522 24.6826 29.3276 26.3033 27.9099 27.6685C26.4922 29.0337 24.8091 30.1166 22.9568 30.8554C21.1045 31.5942 19.1192 31.9745 17.1142 31.9745C15.1093 31.9745 13.1239 31.5942 11.2716 30.8554C9.4193 30.1166 7.73623 29.0337 6.31852 27.6685C4.90081 26.3033 3.77622 24.6826 3.00896 22.899C2.24171 21.1153 1.8468 19.2035 1.8468 17.2729C1.8468 13.3738 3.45533 9.63438 6.31852 6.87729C9.18172 4.1202 13.065 2.57129 17.1142 2.57129C19.1192 2.57129 21.1045 2.95156 22.9568 3.69038C24.8091 4.42921 26.4922 5.51212 27.9099 6.87729C29.3276 8.24246 30.4522 9.86316 31.2194 11.6468C31.9867 13.4305 32.3816 15.3423 32.3816 17.2729Z" fill="black"/>
</g>
<path d="M32.9622 15.9748C32.9622 18.056 32.5522 20.1169 31.7558 22.0398C30.9593 23.9626 29.7919 25.7098 28.3202 27.1814C26.8485 28.6531 25.1014 29.8205 23.1786 30.617C21.2557 31.4135 19.1948 31.8234 17.1135 31.8234C12.9102 31.8234 8.87905 30.1536 5.90685 27.1814C2.93465 24.2092 1.26489 20.1781 1.26489 15.9748C1.26489 11.7714 2.93465 7.74026 5.90685 4.76806C8.87905 1.79587 12.9102 0.1261 17.1135 0.126099C19.1948 0.126098 21.2557 0.536038 23.1786 1.33251C25.1014 2.12898 26.8485 3.29638 28.3202 4.76806C29.7919 6.23975 30.9593 7.98689 31.7558 9.90973C32.5522 11.8326 32.9622 13.8935 32.9622 15.9748Z" fill="url(#paint0_linear_18_172)" stroke="#CDCDCD" stroke-width="0.0470586" stroke-linecap="round" stroke-linejoin="round"/>
<path d="M31.7202 15.9748C31.7202 19.8488 30.1813 23.564 27.442 26.3033C24.7027 29.0426 20.9874 30.5816 17.1135 30.5816C13.2395 30.5816 9.52423 29.0426 6.78494 26.3033C4.04564 23.564 2.50671 19.8488 2.50671 15.9748C2.50671 12.1009 4.04564 8.38556 6.78494 5.64626C9.52423 2.90696 13.2395 1.36804 17.1135 1.36804C20.9874 1.36804 24.7027 2.90696 27.442 5.64626C30.1813 8.38556 31.7202 12.1009 31.7202 15.9748Z" fill="url(#paint1_radial_18_172)"/>
<path d="M17.1135 2.12976C16.9955 2.12976 16.9005 2.22474 16.9005 2.34272V4.79914C16.9005 4.91713 16.9955 5.0121 17.1135 5.0121C17.2315 5.0121 17.3265 4.91713 17.3265 4.79914V2.34272C17.3265 2.22474 17.2315 2.12976 17.1135 2.12976ZM15.7203 2.21781C15.7062 2.2163 15.6917 2.2163 15.677 2.21799C15.5597 2.23024 15.4751 2.33456 15.4873 2.45191L15.5947 3.47957C15.6069 3.59691 15.7112 3.68153 15.8286 3.66927C15.9459 3.65703 16.0305 3.55271 16.0183 3.43536L15.911 2.4077C15.9003 2.30502 15.8191 2.2274 15.7203 2.21781ZM18.5164 2.21883C18.4177 2.22834 18.3364 2.30595 18.3256 2.40862L18.2175 3.43619C18.2052 3.55353 18.2898 3.65795 18.4072 3.67029C18.5245 3.68264 18.6288 3.5981 18.6412 3.48077L18.7493 2.45311C18.7616 2.33577 18.677 2.23143 18.5596 2.2191C18.545 2.21758 18.5306 2.21757 18.5164 2.21883ZM14.2892 2.42535C14.275 2.42546 14.2606 2.42687 14.2462 2.4299C14.1307 2.45434 14.0575 2.56696 14.0819 2.68238L14.5906 5.0855C14.6151 5.20093 14.7277 5.27418 14.8431 5.24975C14.9585 5.22531 15.0318 5.11278 15.0074 4.99736L14.4986 2.59415C14.4772 2.49315 14.3884 2.42458 14.2892 2.42535ZM19.9475 2.42737C19.8483 2.42636 19.7594 2.49514 19.7379 2.59612L19.2275 4.99895C19.2029 5.11436 19.2761 5.22701 19.3915 5.25153C19.5069 5.27607 19.6196 5.20286 19.6441 5.08746L20.1546 2.68462C20.1791 2.56922 20.1059 2.45657 19.9905 2.43205C19.9761 2.42902 19.9617 2.42737 19.9475 2.42737ZM12.9234 2.81046C12.8958 2.80793 12.8673 2.81096 12.8393 2.82027C12.7271 2.85675 12.666 2.97635 12.7025 3.08856L13.0218 4.07128C13.0583 4.18349 13.178 4.2445 13.2902 4.20804C13.4024 4.17157 13.4633 4.05187 13.4268 3.93966L13.1076 2.95695C13.0802 2.87279 13.0061 2.81749 12.9234 2.81046ZM21.3056 2.81096C21.2229 2.818 21.1488 2.87331 21.1214 2.95747L20.8019 3.94009C20.7654 4.0523 20.8264 4.172 20.9386 4.20847C21.0508 4.24495 21.1705 4.18399 21.207 4.0718L21.5264 3.08909C21.5629 2.97688 21.502 2.85718 21.3898 2.82071C21.3617 2.8116 21.3332 2.80864 21.3056 2.81096ZM11.5727 3.30471C11.545 3.30522 11.517 3.31129 11.4901 3.32328C11.3823 3.37119 11.3341 3.49653 11.382 3.60434L12.3797 5.849C12.4276 5.95681 12.553 6.00501 12.6608 5.95709C12.7685 5.90918 12.8169 5.78384 12.769 5.67603L11.7712 3.43137C11.7352 3.3505 11.6557 3.3031 11.5727 3.30471ZM22.6715 3.31225C22.5885 3.31073 22.5089 3.35783 22.4729 3.43863L21.4721 5.68191C21.4241 5.78966 21.4721 5.91509 21.5799 5.96316C21.6876 6.01122 21.813 5.96318 21.8611 5.85544L22.8618 3.61216C22.9099 3.50441 22.8619 3.37898 22.7541 3.33091C22.7272 3.31892 22.6991 3.31285 22.6715 3.31225ZM10.319 3.96804C10.2782 3.965 10.236 3.97411 10.1977 3.99627C10.0956 4.05526 10.0608 4.18499 10.1198 4.28717L10.6364 5.18202C10.6954 5.2842 10.8251 5.31895 10.9273 5.25996C11.0295 5.20097 11.0643 5.07124 11.0053 4.96906L10.4886 4.07421C10.4517 4.01035 10.3872 3.9728 10.319 3.96804ZM23.908 3.96804C23.8398 3.97259 23.7754 4.01033 23.7385 4.0742L23.2218 4.96904C23.1628 5.07122 23.1976 5.20095 23.2998 5.25994C23.402 5.31894 23.5317 5.28418 23.5907 5.182L24.1073 4.28715C24.1663 4.18498 24.1316 4.05525 24.0294 3.99625C23.9911 3.97414 23.9489 3.9652 23.908 3.96804ZM9.10169 4.72731C9.06071 4.72883 9.01967 4.74199 8.98385 4.76794C8.88836 4.83722 8.86725 4.96987 8.93655 5.06537L10.3789 7.05369C10.4482 7.14919 10.5809 7.1703 10.6764 7.10104C10.7719 7.03176 10.793 6.89912 10.7237 6.80361L9.28128 4.8153C9.23797 4.75561 9.16995 4.72498 9.10169 4.72731ZM25.1406 4.73814C25.0723 4.73561 25.0043 4.76622 24.9609 4.82583L23.5158 6.81222C23.4464 6.90762 23.4673 7.04032 23.5627 7.10973C23.6581 7.17914 23.7908 7.15825 23.8603 7.06288L25.3053 5.07649C25.3747 4.98108 25.3537 4.84839 25.2583 4.77898C25.2226 4.75297 25.1815 4.73961 25.1406 4.73814ZM8.01354 5.63988C7.95919 5.63685 7.90371 5.65501 7.85987 5.69448C7.77218 5.77342 7.76513 5.90753 7.84408 5.99521L8.53544 6.76323C8.61437 6.85091 8.74849 6.85797 8.83618 6.77901C8.92387 6.70007 8.93092 6.56587 8.85196 6.47818L8.1607 5.71026C8.12123 5.6664 8.06791 5.64274 8.01354 5.63988ZM26.215 5.6414C26.1607 5.64444 26.1074 5.66796 26.0679 5.7118L25.3765 6.47963C25.2976 6.56731 25.3046 6.70151 25.3923 6.78046C25.4799 6.8594 25.6141 6.85233 25.693 6.76467L26.3844 5.99685C26.4634 5.90916 26.4563 5.77496 26.3687 5.69602C26.3248 5.65656 26.2694 5.63855 26.215 5.6414ZM6.97063 6.64167C6.91627 6.6447 6.86304 6.66823 6.82357 6.71207C6.74463 6.79976 6.75169 6.93387 6.83935 7.01281L8.66499 8.65627C8.75268 8.73522 8.88679 8.72815 8.96572 8.64049C9.04466 8.5528 9.0377 8.41869 8.94999 8.33975L7.12426 6.69629C7.0804 6.65683 7.025 6.63881 6.97063 6.64167ZM27.263 6.64885C27.2086 6.64582 27.1531 6.66393 27.1092 6.70336L25.2825 8.34554C25.1948 8.42441 25.1875 8.55853 25.2664 8.64627C25.3453 8.73401 25.4795 8.74114 25.5672 8.66226L27.3941 7.02008C27.4818 6.94121 27.4889 6.80709 27.4101 6.71935C27.3706 6.67548 27.3174 6.65175 27.263 6.64885ZM6.10335 7.75685C6.03508 7.75432 5.96701 7.78508 5.92367 7.84472C5.85432 7.94017 5.87535 8.07279 5.97082 8.14214L6.80676 8.74949C6.90221 8.81885 7.03483 8.79791 7.10418 8.70244C7.17353 8.60699 7.15255 8.47427 7.05713 8.40492L6.22119 7.79757C6.18542 7.77157 6.14431 7.75832 6.10335 7.75685ZM28.1295 7.76459C28.0885 7.76611 28.0474 7.77921 28.0116 7.80522L27.1753 8.41202C27.0798 8.4813 27.0587 8.61404 27.128 8.70954C27.1973 8.80504 27.3299 8.82606 27.4254 8.75679L28.2618 8.15C28.3573 8.08071 28.3783 7.94807 28.309 7.85257C28.2657 7.79288 28.1977 7.76225 28.1295 7.76459ZM5.29288 8.94639C5.22473 8.95094 5.16027 8.98869 5.12339 9.05255C5.0644 9.15472 5.09916 9.28445 5.20133 9.34345L7.32862 10.5717C7.4308 10.6306 7.56053 10.5959 7.61952 10.4937C7.67852 10.3915 7.64376 10.2618 7.54158 10.2028L5.41429 8.9746C5.37599 8.95249 5.33376 8.94356 5.29288 8.94639ZM28.9341 8.94639C28.8933 8.94335 28.851 8.95246 28.8127 8.97462L26.6854 10.2028C26.5833 10.2618 26.5485 10.3916 26.6075 10.4937C26.6665 10.5959 26.7962 10.6307 26.8984 10.5717L29.0258 9.34347C29.128 9.28447 29.1627 9.15474 29.1037 9.05257C29.0668 8.98871 29.0023 8.95115 28.9341 8.94639ZM4.68011 10.2143C4.59712 10.2123 4.51753 10.2598 4.48148 10.3406C4.43342 10.4483 4.48145 10.5738 4.58921 10.6218L5.53295 11.0428C5.6407 11.0909 5.76614 11.0428 5.8142 10.9351C5.86226 10.8273 5.81414 10.7019 5.70639 10.6538L4.76274 10.2329C4.73582 10.2208 4.70777 10.2149 4.68011 10.2143ZM29.5511 10.2231C29.5234 10.2236 29.4953 10.2296 29.4683 10.2416L28.5244 10.6618C28.4166 10.7099 28.3684 10.8352 28.4164 10.943C28.4644 11.0508 28.5899 11.099 28.6977 11.051L29.6416 10.6307C29.7494 10.5827 29.7975 10.4573 29.7495 10.3495C29.7135 10.2687 29.634 10.2214 29.5511 10.2231ZM4.13397 11.5395C4.05125 11.5464 3.9771 11.6017 3.94969 11.6858C3.91316 11.798 3.97397 11.9177 4.08617 11.9543L6.42174 12.7153C6.53391 12.7519 6.65365 12.691 6.69021 12.5788C6.72674 12.4667 6.66592 12.3469 6.55372 12.3104L4.21816 11.5493C4.19013 11.5402 4.16154 11.5372 4.13397 11.5395ZM30.0962 11.5486C30.0686 11.5461 30.0401 11.5491 30.0121 11.5584L27.676 12.3178C27.5638 12.3543 27.5028 12.474 27.5393 12.5862C27.5758 12.6984 27.6955 12.7593 27.8077 12.7229L30.1437 11.9635C30.2559 11.927 30.3169 11.8073 30.2805 11.6951C30.2531 11.6109 30.1789 11.5556 30.0962 11.5486ZM3.79371 12.9306C3.6945 12.9296 3.60553 12.9985 3.58406 13.0994C3.55953 13.2148 3.63273 13.3275 3.74812 13.352L4.75887 13.5668C4.87428 13.5913 4.98691 13.5181 5.01145 13.4027C5.03598 13.2873 4.96277 13.1747 4.84738 13.1502L3.83672 12.9354C3.82231 12.9323 3.80788 12.9306 3.79371 12.9306ZM30.4338 12.9326C30.4196 12.9327 30.4053 12.9346 30.3909 12.9372L29.3801 13.1519C29.2647 13.1764 29.1915 13.289 29.2161 13.4044C29.2406 13.5198 29.3532 13.593 29.4686 13.5685L30.4793 13.3538C30.5947 13.3293 30.6679 13.2166 30.6434 13.1012C30.622 13.0003 30.533 12.9318 30.4338 12.9326ZM3.53618 14.3299C3.43742 14.3393 3.35613 14.4168 3.34528 14.5195C3.33288 14.6368 3.41729 14.7413 3.53461 14.7537L5.97744 15.0119C6.09476 15.0243 6.19923 14.9398 6.21162 14.8225C6.22402 14.7052 6.13953 14.6007 6.0222 14.5883L3.57938 14.33C3.56471 14.3285 3.55029 14.3285 3.53618 14.3299ZM30.6931 14.3482C30.679 14.3467 30.6645 14.3467 30.6498 14.3484L28.2067 14.6034C28.0894 14.6156 28.0048 14.7199 28.017 14.8373C28.0293 14.9546 28.1336 15.0392 28.2509 15.027L30.694 14.772C30.8114 14.7598 30.896 14.6555 30.8837 14.5381C30.873 14.4354 30.7919 14.3578 30.6931 14.3482ZM3.49482 15.7622C3.37683 15.7622 3.28186 15.8572 3.28186 15.9751C3.28186 16.0931 3.37683 16.1881 3.49482 16.1881H4.52809C4.64607 16.1881 4.74114 16.0931 4.74114 15.9751C4.74114 15.8572 4.64607 15.7622 4.52809 15.7622H3.49482ZM29.6989 15.7622C29.581 15.7622 29.486 15.8572 29.486 15.9751C29.486 16.0931 29.581 16.1881 29.6989 16.1881H30.7322C30.8502 16.1881 30.9452 16.0931 30.9452 15.9751C30.9452 15.8572 30.8502 15.7622 30.7322 15.7622H29.6989ZM6.01935 16.9231C6.00523 16.9216 5.99081 16.9216 5.97614 16.9233L3.53295 17.1783C3.4156 17.1905 3.33101 17.2948 3.34325 17.4122C3.35549 17.5295 3.45981 17.6141 3.57716 17.6019L6.02035 17.3469C6.1377 17.3347 6.22228 17.2303 6.21005 17.113C6.19933 17.0103 6.1181 16.9327 6.01935 16.9231ZM28.2064 16.9382C28.1076 16.9477 28.0263 17.0251 28.0155 17.1278C28.0031 17.2451 28.0875 17.3496 28.2048 17.362L30.6476 17.6203C30.765 17.6327 30.8694 17.5482 30.8818 17.4308C30.8942 17.3135 30.8097 17.2091 30.6924 17.1967L28.2497 16.9384C28.235 16.9369 28.2205 16.9369 28.2064 16.9382ZM4.80152 18.3769C4.78735 18.377 4.77294 18.3784 4.75852 18.3814L3.74776 18.5961C3.63235 18.6207 3.5592 18.7333 3.5837 18.8487C3.60824 18.9641 3.72087 19.0373 3.83628 19.0128L4.84703 18.7982C4.96243 18.7736 5.0356 18.661 5.01109 18.5456C4.98963 18.4446 4.90073 18.3761 4.80152 18.3769ZM29.4252 18.3789C29.326 18.3779 29.2371 18.4467 29.2157 18.5477C29.1911 18.6631 29.2642 18.7757 29.3796 18.8002L30.3904 19.015C30.5058 19.0396 30.6184 18.9665 30.643 18.8511C30.6675 18.7357 30.5943 18.6229 30.4789 18.5984L29.4682 18.3836C29.4538 18.3806 29.4394 18.3789 29.4252 18.3789ZM6.50353 19.2177C6.47596 19.2152 6.44749 19.2182 6.41943 19.2275L4.08333 19.9869C3.97112 20.0234 3.91018 20.1431 3.94665 20.2553C3.98313 20.3675 4.10283 20.4284 4.21504 20.3919L6.55105 19.6326C6.66326 19.5961 6.72429 19.4764 6.68782 19.3642C6.66045 19.28 6.58624 19.2247 6.50353 19.2177ZM27.7212 19.2252C27.6385 19.2322 27.5643 19.2874 27.5369 19.3716C27.5004 19.4837 27.5612 19.6035 27.6734 19.64L30.009 20.4011C30.1211 20.4376 30.2409 20.3767 30.2774 20.2646C30.314 20.1524 30.2531 20.0326 30.1409 19.9961L27.8054 19.2351C27.7773 19.2259 27.7488 19.2229 27.7212 19.2252ZM5.61209 20.8809C5.58441 20.8814 5.5564 20.8874 5.52946 20.8994L4.58544 21.3197C4.47765 21.3677 4.42955 21.4931 4.47753 21.6009C4.52555 21.7086 4.65091 21.7567 4.75869 21.7088L5.70272 21.2885C5.8105 21.2406 5.8586 21.1152 5.81062 21.0074C5.77464 20.9265 5.69508 20.8793 5.61209 20.8809ZM28.6115 20.889C28.5285 20.887 28.449 20.9345 28.4129 21.0153C28.3648 21.1231 28.4129 21.2485 28.5206 21.2966L29.4643 21.7175C29.572 21.7656 29.6975 21.7175 29.7455 21.6098C29.7936 21.502 29.7456 21.3766 29.6378 21.3285L28.6942 20.9076C28.6672 20.8955 28.6392 20.8896 28.6115 20.889ZM7.45004 21.3505C7.40916 21.3475 7.36694 21.3566 7.32862 21.3787L5.20133 22.6069C5.09916 22.6659 5.0644 22.7957 5.12339 22.8978C5.18239 23 5.31212 23.0348 5.41429 22.9758L7.54158 21.7477C7.64376 21.6887 7.67851 21.5589 7.61952 21.4567C7.58264 21.3928 7.51818 21.3553 7.45004 21.3505ZM26.7771 21.3505C26.7089 21.3551 26.6444 21.3928 26.6075 21.4567C26.5485 21.5588 26.5833 21.6887 26.6854 21.7477L28.8127 22.9758C28.9149 23.0348 29.0447 23 29.1037 22.8978C29.1627 22.7957 29.1279 22.6659 29.0258 22.6069L26.8984 21.3787C26.8601 21.3566 26.818 21.3477 26.7771 21.3505ZM6.91943 23.1529C6.87845 23.1544 6.83742 23.1676 6.8016 23.1936L5.9653 23.8004C5.86981 23.8697 5.84868 24.0023 5.91795 24.0978C5.98724 24.1933 6.11988 24.2145 6.21537 24.1451L7.05176 23.5383C7.14727 23.4691 7.16839 23.3364 7.09912 23.2409C7.05581 23.1812 6.98771 23.1505 6.91943 23.1529ZM27.3025 23.1601C27.2343 23.1575 27.1662 23.1883 27.1228 23.2479C27.0535 23.3434 27.0745 23.4761 27.17 23.5455L28.0059 24.1528C28.1014 24.2222 28.234 24.2011 28.3034 24.1057C28.3727 24.0102 28.3517 23.8776 28.2563 23.8082L27.4204 23.2009C27.3846 23.1749 27.3435 23.1615 27.3025 23.1601ZM8.81354 23.2336C8.75919 23.2306 8.70374 23.2487 8.65987 23.2881L6.83304 24.9303C6.7453 25.0092 6.73817 25.1433 6.81705 25.231C6.89592 25.3188 7.03004 25.3259 7.11778 25.247L8.94461 23.6048C9.03235 23.526 9.03948 23.3918 8.9606 23.3041C8.92119 23.2602 8.8679 23.2365 8.81354 23.2336ZM25.4084 23.2395C25.3541 23.2425 25.3007 23.266 25.2613 23.3099C25.1823 23.3976 25.1894 23.5317 25.2771 23.6106L27.1027 25.2541C27.1904 25.333 27.3246 25.326 27.4035 25.2383C27.4825 25.1506 27.4754 25.0165 27.3877 24.9376L25.562 23.2941C25.5181 23.2546 25.4628 23.2366 25.4084 23.2395ZM10.5466 24.7996C10.4784 24.797 10.4102 24.8276 10.3668 24.8873L8.92182 26.8736C8.85241 26.9691 8.8733 27.1018 8.96867 27.1712C9.06407 27.2406 9.19678 27.2197 9.26618 27.1243L10.7112 25.1379C10.7806 25.0425 10.7597 24.9098 10.6644 24.8404C10.6286 24.8143 10.5876 24.801 10.5466 24.7996ZM23.6685 24.8085C23.6276 24.81 23.5865 24.8231 23.5507 24.8491C23.4552 24.9184 23.4341 25.051 23.5033 25.1465L24.9457 27.1348C25.015 27.2304 25.1476 27.2515 25.2431 27.1822C25.3386 27.1129 25.3598 26.9803 25.2905 26.8848L23.8481 24.8965C23.8048 24.8368 23.7368 24.8061 23.6685 24.8085ZM8.68119 25.1153C8.62683 25.1183 8.57352 25.1418 8.53404 25.1857L7.84268 25.9535C7.76373 26.0412 7.77072 26.1754 7.85842 26.2543C7.9461 26.3333 8.08021 26.3262 8.15915 26.2385L8.8506 25.4707C8.92955 25.383 8.92247 25.2488 8.83481 25.1699C8.79095 25.1304 8.73556 25.1124 8.68119 25.1153ZM25.5445 25.1163C25.4902 25.1133 25.4348 25.1314 25.391 25.1709C25.3033 25.2498 25.2962 25.3839 25.3751 25.4716L26.0664 26.2396C26.1453 26.3273 26.2794 26.3344 26.3671 26.2554C26.4548 26.1765 26.4619 26.0423 26.3829 25.9546L25.6916 25.1867C25.6522 25.1428 25.5989 25.1192 25.5445 25.1163ZM12.5645 25.9681C12.4816 25.9661 12.4021 26.0136 12.366 26.0944L11.3652 28.3377C11.3171 28.4454 11.3652 28.5709 11.4729 28.6189C11.5807 28.667 11.7061 28.619 11.7542 28.5112L12.755 26.2679C12.803 26.1602 12.755 26.0348 12.6473 25.9867C12.6203 25.9746 12.5922 25.9687 12.5645 25.9681ZM21.649 25.9743C21.6213 25.9748 21.5932 25.9808 21.5662 25.9928C21.4585 26.0407 21.4102 26.166 21.4582 26.2738L22.4559 28.5185C22.5038 28.6262 22.6292 28.6745 22.737 28.6266C22.8448 28.5787 22.893 28.4533 22.8451 28.3455L21.8474 26.1008C21.8115 26.02 21.732 25.9727 21.649 25.9743ZM10.8059 26.6617C10.7378 26.6663 10.6733 26.704 10.6364 26.7679L10.1198 27.6627C10.0608 27.7649 10.0956 27.8946 10.1977 27.9536C10.2999 28.0126 10.4296 27.9778 10.4886 27.8757L11.0053 26.9808C11.0643 26.8786 11.0295 26.7489 10.9273 26.6899C10.889 26.6678 10.8468 26.6589 10.8059 26.6617ZM23.4211 26.6617C23.3802 26.6587 23.3381 26.6678 23.2998 26.6899C23.1976 26.7489 23.1629 26.8787 23.2218 26.9808L23.7385 27.8757C23.7975 27.9779 23.9272 28.0126 24.0294 27.9536C24.1316 27.8946 24.1663 27.7649 24.1073 27.6627L23.5907 26.7679C23.5538 26.704 23.4893 26.6665 23.4211 26.6617ZM14.7926 26.6938C14.6934 26.6928 14.6045 26.7615 14.583 26.8625L14.0725 29.2654C14.048 29.3808 14.1212 29.4934 14.2366 29.5179C14.352 29.5425 14.4646 29.4693 14.4892 29.3539L14.9996 26.951C15.0242 26.8356 14.951 26.723 14.8356 26.6985C14.8212 26.6954 14.8067 26.6938 14.7926 26.6938ZM19.4269 26.6953C19.4128 26.6954 19.3984 26.6968 19.384 26.6998C19.2686 26.7243 19.1953 26.8368 19.2198 26.9522L19.7285 29.3554C19.7529 29.4709 19.8655 29.5441 19.981 29.5197C20.0964 29.4953 20.1697 29.3826 20.1452 29.2672L19.6364 26.8642C19.615 26.7632 19.5261 26.6945 19.4269 26.6953ZM17.1135 26.9377C16.9955 26.9377 16.9005 27.0326 16.9005 27.1506V29.607C16.9005 29.725 16.9955 29.82 17.1135 29.82C17.2315 29.82 17.3265 29.725 17.3265 29.607V27.1506C17.3265 27.0326 17.2315 26.9377 17.1135 26.9377ZM13.2043 27.7314C13.1216 27.7384 13.0474 27.7938 13.0201 27.8779L12.7007 28.8606C12.6642 28.9728 12.7251 29.0925 12.8373 29.129C12.9495 29.1655 13.0692 29.1044 13.1057 28.9923L13.4251 28.0096C13.4616 27.8974 13.4006 27.7777 13.2884 27.7412C13.2604 27.7321 13.2319 27.7291 13.2043 27.7314ZM21.021 27.7319C20.9935 27.7294 20.965 27.7324 20.9369 27.7417C20.8247 27.7782 20.7637 27.8979 20.8002 28.0101L21.1195 28.9928C21.1559 29.105 21.2756 29.1659 21.3878 29.1295C21.5001 29.093 21.5611 28.9734 21.5246 28.8612L21.2052 27.8784C21.1779 27.7943 21.1037 27.7389 21.021 27.7319ZM15.7768 28.2792C15.678 28.2888 15.5966 28.3663 15.5859 28.469L15.4779 29.4966C15.4655 29.614 15.55 29.7183 15.6674 29.7306C15.7847 29.743 15.8891 29.6584 15.9015 29.5411L16.0095 28.5135C16.0218 28.3962 15.9373 28.2918 15.82 28.2794C15.8053 28.2779 15.7909 28.2779 15.7768 28.2792ZM18.4417 28.2803C18.4276 28.2787 18.4131 28.2787 18.3984 28.2804C18.2811 28.2927 18.1965 28.397 18.2087 28.5143L18.3161 29.5421C18.3283 29.6594 18.4326 29.744 18.55 29.7317C18.6673 29.7195 18.7519 29.6151 18.7397 29.4978L18.6324 28.4701C18.6217 28.3675 18.5405 28.2899 18.4417 28.2803Z" fill="#F4F2F3"/>
<g opacity="0.409" filter="url(#filter1_f_18_172)">
<path d="M27.0945 7.4563L15.4431 14.2258L8.07629 25.8233L18.8534 17.8408L27.0945 7.4563Z" fill="black"/>
</g>
<path d="M18.7833 17.7234L15.4436 14.226L27.2907 6.25647L18.7833 17.7234Z" fill="#FF5150"/>
<path d="M18.7833 17.7234L15.4436 14.226L6.93616 25.6929L18.7833 17.7234Z" fill="#F1F1F1"/>
<path opacity="0.243" d="M6.93616 25.693L18.7833 17.7234L27.2907 6.25647L6.93616 25.693Z" fill="black"/>
</g>
<defs>
<filter id="filter0_f_18_172" x="0.648255" y="1.37274" width="32.9319" height="31.8003" filterUnits="userSpaceOnUse" color-interpolation-filters="sRGB">
<feFlood flood-opacity="0" result="BackgroundImageFix"/>
<feBlend mode="normal" in="SourceGraphic" in2="BackgroundImageFix" result="shape"/>
<feGaussianBlur stdDeviation="0.599274" result="effect1_foregroundBlur_18_172"/>
</filter>
<filter id="filter1_f_18_172" x="7.73563" y="7.11564" width="19.6995" height="19.0483" filterUnits="userSpaceOnUse" color-interpolation-filters="sRGB">
<feFlood flood-opacity="0" result="BackgroundImageFix"/>
<feBlend mode="normal" in="SourceGraphic" in2="BackgroundImageFix" result="shape"/>
<feGaussianBlur stdDeviation="0.17033" result="effect1_foregroundBlur_18_172"/>
</filter>
<linearGradient id="paint0_linear_18_172" x1="17.113" y1="31.8231" x2="17.113" y2="0.126016" gradientUnits="userSpaceOnUse">
<stop stop-color="#BDBDBD"/>
<stop offset="1" stop-color="white"/>
</linearGradient>
<radialGradient id="paint1_radial_18_172" cx="0" cy="0" r="1" gradientUnits="userSpaceOnUse" gradientTransform="translate(17.1793 13.8449) scale(15.8486 15.8486)">
<stop stop-color="#06C2E7"/>
<stop offset="0.25" stop-color="#0DB8EC"/>
<stop offset="0.5" stop-color="#12AEF1"/>
<stop offset="0.75" stop-color="#1F86F9"/>
<stop offset="1" stop-color="#107DDD"/>
</radialGradient>
<clipPath id="clip0_18_172">
<rect width="33.4759" height="33.2927" fill="white" transform="translate(0.375488 0.0975342)"/>
</clipPath>
</defs>
</svg>
